<?xml version="1.0" encoding="utf-8"?>
<!-- Generator: Adobe Illustrator 19.1.0, SVG Export Plug-In . SVG Version: 6.00 Build 0)  -->
<svg version="1.1" id="Ebene_1" xmlns="http://www.w3.org/2000/svg" xmlns:xlink="http://www.w3.org/1999/xlink" x="0px" y="0px"
	 viewBox="-231 226 495.7 109" style="enable-background:new -231 226 495.7 109;" xml:space="preserve">
<style type="text/css">
	.st0{fill:#FFFFFF;}
	.st1{fill:#64D591;}
	.st2{fill:#6CC291;}
</style>
<rect x="110" y="248.5" class="st0" width="135" height="51.5"/>
<g id="Transparent">
	<g>
		<path class="st1" d="M111.1,240.6L84,273.5l27.1,33.4H258v-66.3H111.1z M136.7,285.8c4.1,0,7.6-2.5,9.2-5.7l7.2,3.5
			c-2.8,4.9-7.8,9.7-16.4,9.7c-11.8,0-20.9-8.2-20.9-20.3s9.1-20.3,20.9-20.3c8.7,0,13.7,4.7,16.4,9.6l-7.2,3.5
			c-1.6-3.2-5.2-5.7-9.2-5.7c-7.1,0-12.3,5.5-12.3,12.9S129.6,285.8,136.7,285.8z M176.7,293.2c-11.8,0-20.5-8.5-20.5-20.3
			c0-11.8,8.7-20.3,20.5-20.3c11.9,0,20.5,8.5,20.5,20.3C197.3,284.7,188.6,293.2,176.7,293.2z M238.3,292.5h-8.1l-18.7-25.6v25.6
			h-8.4v-39.3h8.6l18.2,24.7v-24.7h8.4V292.5z"/>
		<path class="st2" d="M176.7,260c-7.2,0-11.9,5.5-11.9,12.9c0,7.3,4.7,12.9,11.9,12.9c7.2,0,12-5.6,12-12.9
			C188.7,265.5,184,260,176.7,260z"/>
	</g>
	<path class="st0" d="M-231,327.3V226h26.1v78.5h40.7v22.8H-231z"/>
	<path class="st0" d="M-143.1,327.3V226h26.1v101.3H-143.1z"/>
	<path class="st0" d="M-24.5,327.3l-42.8-58.6v58.6h-26.1V226h26.9l41,55.7V226H0.8v101.3H-24.5z"/>
	<g>
		<path class="st0" d="M83.5,327.3l-26.6-38.1l-6.8,8.5v29.6H24V226h26.1v41.6L81.2,226h32.2l-39.3,47.4l41.5,53.9H83.5z"/>
	</g>
</g>
</svg>
